<svg width="30" height="30" viewBox="0 0 30 30" fill="none" xmlns="http://www.w3.org/2000/svg">
<g id="uis:signal-alt">
<path id="Vector" d="M6.25 22.5C5.5 22.5 5 23 5 23.75V26.25C5 27 5.5 27.5 6.25 27.5C7 27.5 7.5 27 7.5 26.25V23.75C7.5 23 7 22.5 6.25 22.5ZM12.5 17.5C11.75 17.5 11.25 18 11.25 18.75V26.25C11.25 27 11.75 27.5 12.5 27.5C13.25 27.5 13.75 27 13.75 26.25V18.75C13.75 18 13.25 17.5 12.5 17.5ZM25 2.5C24.25 2.5 23.75 3 23.75 3.75V26.25C23.75 27 24.25 27.5 25 27.5C25.75 27.5 26.25 27 26.25 26.25V3.75C26.25 3 25.75 2.5 25 2.5ZM18.75 11.25C18 11.25 17.5 11.75 17.5 12.5V26.25C17.5 27 18 27.5 18.75 27.5C19.5 27.5 20 27 20 26.25V12.5C20 11.75 19.5 11.25 18.75 11.25Z" fill="black"/>
</g>
</svg>
