<svg width="28" height="30" viewBox="0 0 28 30" fill="none" xmlns="http://www.w3.org/2000/svg">
<path id="Vector" d="M27.3855 9V28.4895C27.3868 28.6865 27.3502 28.8818 27.2777 29.0643C27.2052 29.2468 27.0982 29.413 26.9628 29.5532C26.8274 29.6935 26.6664 29.8052 26.4888 29.8818C26.3112 29.9585 26.1205 29.9986 25.9278 30H2.41915C2.03279 30 1.66224 29.8433 1.3889 29.5643C1.11557 29.2853 0.961815 28.9068 0.961426 28.512V1.488C0.961426 0.6825 1.62056 0 2.43237 0H18.5731L27.3855 9ZM24.4495 10.5H17.1095V3H3.89743V27H24.4495V10.5Z" fill="black"/>
</svg>
