<svg width="29" height="30" viewBox="0 0 29 30" fill="none" xmlns="http://www.w3.org/2000/svg">
<path id="Vector" d="M28.578 9.56562V28.3175C28.5794 28.507 28.5409 28.6949 28.4646 28.8706C28.3883 29.0462 28.2758 29.206 28.1334 29.341C27.991 29.4759 27.8216 29.5833 27.6348 29.6571C27.4481 29.7309 27.2476 29.7695 27.0448 29.7708H2.32024C1.91389 29.7708 1.52417 29.62 1.2367 29.3516C0.949225 29.0831 0.787519 28.719 0.787109 28.3391V2.33793C0.787109 1.56292 1.48034 0.90625 2.33413 0.90625H19.3097L28.578 9.56562ZM25.4901 11.0088H17.7704V3.79271H3.87498V26.8844H25.4901V11.0088Z" fill="black"/>
</svg>
