<svg width="31" height="30" viewBox="0 0 31 30" fill="none" xmlns="http://www.w3.org/2000/svg">
<path id="Vector" d="M30.7096 9V28.4895C30.7111 28.6865 30.6687 28.8818 30.5845 29.0643C30.5004 29.2468 30.3763 29.413 30.2194 29.5532C30.0624 29.6935 29.8756 29.8052 29.6696 29.8818C29.4636 29.9585 29.2426 29.9986 29.019 30H1.75504C1.30696 30 0.877215 29.8433 0.560217 29.5643C0.243219 29.2853 0.0649044 28.9068 0.0644531 28.512V1.488C0.0644531 0.6825 0.828878 0 1.77036 0H20.4894L30.7096 9ZM27.3046 10.5H18.792V3H3.46947V27H27.3046V10.5Z" fill="black"/>
</svg>
