<svg width="28" height="30" viewBox="0 0 28 30" fill="none" xmlns="http://www.w3.org/2000/svg">
<path id="Vector" d="M27.3858 9.56562V28.3175C27.3871 28.507 27.3505 28.6949 27.278 28.8706C27.2054 29.0462 27.0984 29.206 26.9631 29.341C26.8277 29.4759 26.6666 29.5833 26.489 29.6571C26.3114 29.7309 26.1208 29.7695 25.928 29.7708H2.4194C2.03304 29.7708 1.66248 29.62 1.38915 29.3516C1.11581 29.0831 0.962059 28.719 0.96167 28.3391V2.33793C0.96167 1.56292 1.6208 0.90625 2.43261 0.90625H18.5733L27.3858 9.56562ZM24.4497 11.0088H17.1097V3.79271H3.89768V26.8844H24.4497V11.0088Z" fill="black"/>
</svg>
