<svg width="29" height="30" viewBox="0 0 29 30" fill="none" xmlns="http://www.w3.org/2000/svg">
<path id="Vector" d="M28.7759 9V28.4895C28.7774 28.6865 28.7375 28.8818 28.6586 29.0643C28.5797 29.2468 28.4632 29.413 28.3159 29.5532C28.1685 29.6935 27.9932 29.8052 27.7999 29.8818C27.6066 29.9585 27.3991 29.9986 27.1893 30H1.60177C1.18125 30 0.777923 29.8433 0.480417 29.5643C0.18291 29.2853 0.0155602 28.9068 0.0151367 28.512V1.488C0.0151367 0.6825 0.732558 0 1.61615 0H19.1842L28.7759 9ZM25.5803 10.5H17.5912V3H3.21078V27H25.5803V10.5Z" fill="black"/>
</svg>
