<svg width="26" height="28" viewBox="0 0 26 28" fill="none" xmlns="http://www.w3.org/2000/svg">
<g id="flat-color-icons:google">
<path id="Vector" d="M23.6227 11.7151H22.7501V11.6667H13.0001V16.3334H19.1225C18.2293 19.05 15.8292 21 13.0001 21C9.41046 21 6.50008 17.8658 6.50008 14C6.50008 10.1343 9.41046 7.00004 13.0001 7.00004C14.657 7.00004 16.1645 7.67321 17.3123 8.77279L20.3765 5.47287C18.4417 3.53096 15.8536 2.33337 13.0001 2.33337C7.01737 2.33337 2.16675 7.55712 2.16675 14C2.16675 20.443 7.01737 25.6667 13.0001 25.6667C18.9828 25.6667 23.8334 20.443 23.8334 14C23.8334 13.2178 23.7587 12.4542 23.6227 11.7151Z" fill="#FFC107"/>
<path id="Vector_2" d="M3.41577 8.56979L6.97506 11.3809C7.93815 8.81304 10.2706 7.00004 13 7.00004C14.657 7.00004 16.1644 7.67321 17.3122 8.77279L20.3764 5.47287C18.4416 3.53096 15.8535 2.33337 13 2.33337C8.83894 2.33337 5.23035 4.86329 3.41577 8.56979Z" fill="#FF3D00"/>
<path id="Vector_3" d="M13.0001 25.6667C15.7983 25.6667 18.3409 24.5135 20.2633 22.638L16.9104 19.5825C15.7862 20.5033 14.4125 21.0012 13.0001 21C10.1823 21 7.7898 19.0651 6.88846 16.3649L3.35571 19.2961C5.14863 23.0744 8.78971 25.6667 13.0001 25.6667Z" fill="#4CAF50"/>
<path id="Vector_4" d="M23.6226 11.715H22.75V11.6666H13V16.3333H19.1225C18.6952 17.6262 17.9256 18.756 16.9087 19.583L16.9103 19.5819L20.2632 22.6374C20.026 22.8695 23.8333 19.8333 23.8333 14C23.8333 13.2177 23.7586 12.4541 23.6226 11.715Z" fill="#1976D2"/>
</g>
</svg>
