<svg width="30" height="30" viewBox="0 0 30 30" fill="none" xmlns="http://www.w3.org/2000/svg">
<g id="uis:signal-alt">
<path id="Vector" d="M6.25 22.4589C5.5 22.4589 5 22.9399 5 23.6616V26.0669C5 26.7885 5.5 27.2696 6.25 27.2696C7 27.2696 7.5 26.7885 7.5 26.0669V23.6616C7.5 22.9399 7 22.4589 6.25 22.4589ZM12.5 17.6481C11.75 17.6481 11.25 18.1292 11.25 18.8508V26.0669C11.25 26.7885 11.75 27.2696 12.5 27.2696C13.25 27.2696 13.75 26.7885 13.75 26.0669V18.8508C13.75 18.1292 13.25 17.6481 12.5 17.6481ZM25 3.21582C24.25 3.21582 23.75 3.6969 23.75 4.41851V26.0669C23.75 26.7885 24.25 27.2696 25 27.2696C25.75 27.2696 26.25 26.7885 26.25 26.0669V4.41851C26.25 3.6969 25.75 3.21582 25 3.21582ZM18.75 11.6347C18 11.6347 17.5 12.1157 17.5 12.8373V26.0669C17.5 26.7885 18 27.2696 18.75 27.2696C19.5 27.2696 20 26.7885 20 26.0669V12.8373C20 12.1157 19.5 11.6347 18.75 11.6347Z" fill="black"/>
</g>
</svg>
