<svg width="31" height="30" viewBox="0 0 31 30" fill="none" xmlns="http://www.w3.org/2000/svg">
<g id="uis:signal-alt">
<path id="Vector" d="M6.44876 22.5C5.68263 22.5 5.17188 23 5.17188 23.75V26.25C5.17188 27 5.68263 27.5 6.44876 27.5C7.21489 27.5 7.72564 27 7.72564 26.25V23.75C7.72564 23 7.21489 22.5 6.44876 22.5ZM12.8332 17.5C12.067 17.5 11.5563 18 11.5563 18.75V26.25C11.5563 27 12.067 27.5 12.8332 27.5C13.5993 27.5 14.11 27 14.11 26.25V18.75C14.11 18 13.5993 17.5 12.8332 17.5ZM25.602 2.5C24.8359 2.5 24.3251 3 24.3251 3.75V26.25C24.3251 27 24.8359 27.5 25.602 27.5C26.3681 27.5 26.8789 27 26.8789 26.25V3.75C26.8789 3 26.3681 2.5 25.602 2.5ZM19.2176 11.25C18.4514 11.25 17.9407 11.75 17.9407 12.5V26.25C17.9407 27 18.4514 27.5 19.2176 27.5C19.9837 27.5 20.4945 27 20.4945 26.25V12.5C20.4945 11.75 19.9837 11.25 19.2176 11.25Z" fill="black"/>
</g>
</svg>
